<?xml version="1.0" encoding="UTF-8" ?>
<!DOCTYPE svg PUBLIC "-//W3C//DTD SVG 1.1//EN" "http://www.w3.org/Graphics/SVG/1.1/DTD/svg11.dtd">
<svg width="512pt" height="512pt" viewBox="0 0 512 512" version="1.1" xmlns="http://www.w3.org/2000/svg">
<g id="#000000ff">
<path fill="#000000" opacity="1.00" d=" M 183.68 20.86 C 230.82 7.20 281.84 7.30 328.96 21.02 C 390.92 38.95 445.59 81.15 477.99 137.00 C 499.18 172.76 510.71 213.98 512.00 255.48 L 512.00 265.61 C 511.38 306.42 500.67 347.07 480.67 382.68 C 451.59 435.06 403.14 476.19 346.95 496.85 C 340.67 498.98 334.16 502.41 327.35 500.53 C 322.13 499.37 318.65 494.18 318.75 488.97 C 318.74 464.97 319.08 440.98 318.96 416.98 C 318.55 401.08 313.96 384.17 301.83 373.15 C 319.88 371.16 337.98 367.84 354.80 360.81 C 369.07 354.96 382.30 346.17 392.38 334.42 C 410.83 313.21 417.48 284.44 418.37 256.96 C 419.25 240.53 417.05 223.75 410.25 208.67 C 405.88 198.74 399.69 189.65 392.36 181.67 C 400.33 160.14 398.07 135.98 389.71 114.92 C 380.72 113.55 371.66 115.66 363.14 118.42 C 347.61 123.61 333.31 131.83 319.70 140.81 C 277.94 129.56 233.30 129.66 191.53 140.80 C 177.82 131.71 163.34 123.51 147.67 118.31 C 139.19 115.63 130.20 113.56 121.28 114.93 C 112.96 135.97 110.48 160.28 118.97 181.68 C 102.60 198.88 93.09 222.26 92.73 246.00 C 92.38 272.13 96.15 299.34 109.86 322.06 C 118.59 336.63 131.62 348.42 146.63 356.29 C 165.93 366.53 187.67 370.95 209.20 373.38 C 199.69 382.02 194.86 394.58 193.06 407.06 C 179.18 413.07 163.21 415.86 148.47 411.40 C 136.15 407.69 126.12 398.53 119.50 387.70 C 112.71 376.30 102.45 366.46 89.66 362.27 C 83.37 360.26 76.24 359.18 69.99 361.87 C 68.03 362.62 66.92 364.91 68.17 366.79 C 71.24 372.06 76.98 374.81 81.78 378.24 C 90.86 385.01 97.50 394.53 102.51 404.57 C 105.46 410.32 107.20 416.67 110.91 422.03 C 118.33 433.51 130.09 441.90 143.17 445.70 C 159.09 450.55 176.11 449.29 192.22 446.09 C 192.30 460.04 192.45 474.00 192.52 487.95 C 192.66 492.26 191.03 496.90 187.23 499.26 C 182.31 502.37 176.02 501.57 170.87 499.49 C 120.93 482.24 76.54 449.21 45.98 406.07 C 17.04 365.63 0.87 316.33 0.00 266.62 L 0.00 254.65 C 1.53 209.77 15.14 165.27 39.74 127.64 C 72.75 76.24 124.97 37.66 183.68 20.86 Z" />
</g>
</svg>
