<?xml version="1.0" encoding="UTF-8" ?>
<!DOCTYPE svg PUBLIC "-//W3C//DTD SVG 1.1//EN" "http://www.w3.org/Graphics/SVG/1.1/DTD/svg11.dtd">
<svg width="512pt" height="512pt" viewBox="0 0 512 512" version="1.1" xmlns="http://www.w3.org/2000/svg">
<g id="#ffffffff">
<path fill="#ffffff" opacity="1.00" d=" M 234.48 0.00 L 277.52 0.00 C 303.71 2.84 329.79 8.59 354.10 18.89 C 428.23 49.06 486.34 116.08 504.97 193.99 C 508.23 207.31 510.09 220.91 512.00 234.48 L 512.00 277.52 C 508.81 308.02 501.23 338.23 487.88 365.92 C 453.61 439.07 382.86 494.28 303.08 508.11 C 294.58 509.57 286.06 510.82 277.52 512.00 L 234.48 512.00 C 208.29 509.16 182.21 503.41 157.90 493.11 C 83.77 462.94 25.66 395.92 7.03 318.01 C 3.77 304.68 1.91 291.09 0.00 277.52 L 0.00 234.48 C 1.91 220.91 3.77 207.31 7.03 193.99 C 25.66 116.08 83.77 49.06 157.90 18.89 C 182.21 8.59 208.29 2.84 234.48 0.00 M 162.64 120.66 C 144.06 142.92 135.33 172.31 134.92 201.00 C 134.02 225.31 143.60 248.10 153.07 269.95 C 180.32 327.51 217.21 379.79 255.49 430.44 C 257.07 429.02 258.67 427.61 260.02 425.97 C 272.42 409.03 285.24 392.39 296.98 374.98 C 325.22 333.05 353.01 289.99 370.16 242.13 C 373.76 230.07 377.56 217.75 377.08 205.01 C 376.90 186.87 374.36 168.48 367.48 151.60 C 358.38 127.97 341.02 107.41 318.65 95.36 C 298.78 85.23 276.37 79.56 253.98 80.90 C 219.94 80.57 184.35 93.60 162.64 120.66 Z" />
<path fill="#ffffff" opacity="1.00" d=" M 241.46 112.55 C 268.35 109.48 298.47 113.83 318.78 133.22 C 337.99 150.03 345.60 176.21 346.01 200.98 C 347.22 213.24 343.62 225.21 339.56 236.61 C 319.44 287.43 288.82 333.14 257.65 377.71 C 256.23 380.31 253.99 377.39 253.07 375.92 C 222.13 332.03 192.21 286.62 172.49 236.41 C 163.73 215.09 163.86 190.75 171.00 168.99 C 177.88 144.04 198.27 123.45 223.09 116.18 C 229.09 114.46 235.22 113.09 241.46 112.55 M 250.47 168.53 C 238.00 170.38 226.37 178.49 221.13 190.07 C 213.56 204.81 217.09 224.39 229.75 235.24 C 240.64 246.12 258.24 248.53 271.99 241.99 C 288.65 235.01 298.34 214.84 293.51 197.45 C 289.09 178.90 269.51 165.20 250.47 168.53 Z" />
</g>
</svg>
